<svg width="80" height="16" viewBox="0 0 80 16" fill="none" xmlns="http://www.w3.org/2000/svg">
<path d="M71.4294 1.75623C71.609 1.20344 72.391 1.20344 72.5706 1.75623L73.6614 5.11327C73.7417 5.36049 73.9721 5.52786 74.232 5.52786H77.7618C78.3431 5.52786 78.5847 6.27163 78.1145 6.61327L75.2588 8.68804C75.0485 8.84083 74.9606 9.11165 75.0409 9.35886L76.1316 12.7159C76.3113 13.2687 75.6786 13.7284 75.2083 13.3867L72.3527 11.312C72.1424 11.1592 71.8576 11.1592 71.6473 11.312L68.7917 13.3867C68.3214 13.7284 67.6887 13.2687 67.8684 12.7159L68.9591 9.35886C69.0394 9.11165 68.9515 8.84083 68.7412 8.68804L65.8855 6.61327C65.4153 6.27163 65.6569 5.52786 66.2382 5.52786H69.768C70.0279 5.52786 70.2583 5.36049 70.3386 5.11327L71.4294 1.75623Z" fill="#FF9500"/>
<path d="M55.4294 1.75623C55.609 1.20344 56.391 1.20344 56.5706 1.75623L57.6614 5.11327C57.7417 5.36049 57.9721 5.52786 58.232 5.52786H61.7618C62.3431 5.52786 62.5847 6.27163 62.1145 6.61327L59.2588 8.68804C59.0485 8.84083 58.9606 9.11165 59.0409 9.35886L60.1316 12.7159C60.3113 13.2687 59.6786 13.7284 59.2083 13.3867L56.3527 11.312C56.1424 11.1592 55.8576 11.1592 55.6473 11.312L52.7917 13.3867C52.3214 13.7284 51.6887 13.2687 51.8684 12.7159L52.9591 9.35886C53.0394 9.11165 52.9515 8.84083 52.7412 8.68804L49.8855 6.61327C49.4153 6.27163 49.6569 5.52786 50.2382 5.52786H53.768C54.0279 5.52786 54.2583 5.36049 54.3386 5.11327L55.4294 1.75623Z" fill="#FF9500"/>
<path d="M39.4294 1.75623C39.609 1.20344 40.391 1.20344 40.5706 1.75623L41.6614 5.11327C41.7417 5.36049 41.9721 5.52786 42.232 5.52786H45.7618C46.3431 5.52786 46.5847 6.27163 46.1145 6.61327L43.2588 8.68804C43.0485 8.84083 42.9606 9.11165 43.0409 9.35886L44.1316 12.7159C44.3113 13.2687 43.6786 13.7284 43.2083 13.3867L40.3527 11.312C40.1424 11.1592 39.8576 11.1592 39.6473 11.312L36.7917 13.3867C36.3214 13.7284 35.6887 13.2687 35.8684 12.7159L36.9591 9.35886C37.0394 9.11165 36.9515 8.84083 36.7412 8.68804L33.8855 6.61327C33.4153 6.27163 33.6569 5.52786 34.2382 5.52786H37.768C38.0279 5.52786 38.2583 5.36049 38.3386 5.11327L39.4294 1.75623Z" fill="#FF9500"/>
<path d="M23.4294 1.75623C23.609 1.20344 24.391 1.20344 24.5706 1.75623L25.6614 5.11327C25.7417 5.36049 25.9721 5.52786 26.232 5.52786H29.7618C30.3431 5.52786 30.5847 6.27163 30.1145 6.61327L27.2588 8.68804C27.0485 8.84083 26.9606 9.11165 27.0409 9.35886L28.1316 12.7159C28.3113 13.2687 27.6786 13.7284 27.2083 13.3867L24.3527 11.312C24.1424 11.1592 23.8576 11.1592 23.6473 11.312L20.7917 13.3867C20.3214 13.7284 19.6887 13.2687 19.8684 12.7159L20.9591 9.35886C21.0394 9.11165 20.9515 8.84083 20.7412 8.68804L17.8855 6.61327C17.4153 6.27163 17.6569 5.52786 18.2382 5.52786H21.768C22.0279 5.52786 22.2583 5.36049 22.3386 5.11327L23.4294 1.75623Z" fill="#FF9500"/>
<path d="M7.42937 1.75623C7.60898 1.20344 8.39102 1.20344 8.57063 1.75623L9.6614 5.11327C9.74173 5.36049 9.9721 5.52786 10.232 5.52786H13.7618C14.3431 5.52786 14.5847 6.27163 14.1145 6.61327L11.2588 8.68804C11.0485 8.84083 10.9606 9.11165 11.0409 9.35886L12.1316 12.7159C12.3113 13.2687 11.6786 13.7284 11.2083 13.3867L8.35267 11.312C8.14238 11.1592 7.85762 11.1592 7.64733 11.312L4.79166 13.3867C4.32143 13.7284 3.68874 13.2687 3.86835 12.7159L4.95912 9.35886C5.03945 9.11165 4.95145 8.84083 4.74116 8.68804L1.88549 6.61327C1.41526 6.27163 1.65692 5.52786 2.23816 5.52786H5.76796C6.0279 5.52786 6.25827 5.36049 6.3386 5.11327L7.42937 1.75623Z" fill="#FF9500"/>
</svg>
